<svg width="50" height="50" viewBox="0 0 50 50" fill="none" xmlns="http://www.w3.org/2000/svg">
<path d="M25.0063 0H24.9937C11.2094 0 0 11.2125 0 25C0 30.4688 1.7625 35.5375 4.75938 39.6531L1.64375 48.9406L11.2531 45.8688C15.2063 48.4875 19.9219 50 25.0063 50C38.7906 50 50 38.7844 50 25C50 11.2156 38.7906 0 25.0063 0Z" fill="#4CAF50"/>
<path d="M39.5537 35.3033C38.9506 37.0064 36.5568 38.4189 34.6475 38.8314C33.3412 39.1096 31.635 39.3314 25.8912 36.9502C18.5443 33.9065 13.8131 26.4408 13.4443 25.9564C13.0912 25.4721 10.4756 22.0033 10.4756 18.4158C10.4756 14.8283 12.2975 13.0814 13.0318 12.3314C13.635 11.7158 14.6318 11.4346 15.5881 11.4346C15.8975 11.4346 16.1756 11.4502 16.4256 11.4627C17.16 11.4939 17.5287 11.5377 18.0131 12.6971C18.6162 14.1502 20.085 17.7377 20.26 18.1064C20.4381 18.4752 20.6162 18.9752 20.3662 19.4596C20.1318 19.9596 19.9256 20.1814 19.5568 20.6064C19.1881 21.0314 18.8381 21.3564 18.4693 21.8127C18.1318 22.2096 17.7506 22.6346 18.1756 23.3689C18.6006 24.0877 20.0693 26.4846 22.2318 28.4096C25.0225 30.8939 27.285 31.6877 28.0943 32.0252C28.6975 32.2752 29.4162 32.2158 29.8568 31.7471C30.4162 31.1439 31.1068 30.1439 31.81 29.1596C32.31 28.4533 32.9412 28.3658 33.6037 28.6158C34.2787 28.8502 37.8506 30.6158 38.585 30.9814C39.3193 31.3502 39.8037 31.5252 39.9818 31.8346C40.1568 32.1439 40.1568 33.5971 39.5537 35.3033Z" fill="#FAFAFA"/>
</svg>
