<svg width="25" height="26" viewBox="0 0 25 26" fill="none" xmlns="http://www.w3.org/2000/svg">
<g clip-path="url(#clip0)">
<path d="M23.62 0.57019H1.37882C0.617218 0.570572 -0.000190691 1.18836 4.41806e-08 1.95016V24.1914C0.000381514 24.953 0.618172 25.5704 1.37997 25.5702H23.62C24.382 25.5704 24.9998 24.9528 25 24.1908C25 24.1906 25 24.1904 25 24.1902V1.94901C24.9996 1.18741 24.3818 0.57 23.62 0.57019Z" fill="#4267B2"/>
<path d="M17.2617 25.5702V15.9023H20.521L21.0093 12.1181H17.2617V9.70795C17.2617 8.61485 17.5652 7.87003 19.1326 7.87003H21.1191V4.4946C20.7735 4.44863 19.5877 4.34583 18.208 4.34583C15.3271 4.34583 13.3555 6.10364 13.3555 9.33316V12.1181H10.1084V15.9023H13.3555V25.5702H17.2617Z" fill="white"/>
</g>
<defs>
<clipPath id="clip0">
<rect y="0.57019" width="25" height="25" fill="white"/>
</clipPath>
</defs>
</svg>
