<svg width="50" height="50" viewBox="0 0 50 50" fill="none" xmlns="http://www.w3.org/2000/svg">
<path d="M50 0H0V50H50V0Z" fill="#7D3DAF"/>
<path d="M40.813 16.117L40.8031 16.0775C40.0044 12.8487 36.4036 9.38389 33.0968 8.66307L33.0595 8.65539C27.7109 7.63505 22.2878 7.63505 16.9403 8.65539L16.9019 8.66307C13.5963 9.38389 9.99545 12.8487 9.19563 16.0775L9.18686 16.117C8.19943 20.6263 8.19943 25.1991 9.18686 29.7084L9.19563 29.7479C9.96133 32.839 13.294 36.1445 16.4773 37.0536V40.6579C16.4773 41.9624 18.0671 42.6032 18.9711 41.6618L22.623 37.8658C23.415 37.9101 24.2075 37.9348 24.9999 37.9348C27.6923 37.9348 30.3858 37.6803 33.0595 37.1701L33.0968 37.1624C36.4036 36.4416 40.0044 32.9769 40.8031 29.748L40.813 29.7085C41.8004 25.1991 41.8004 20.6263 40.813 16.117ZM37.9231 29.0545C37.3899 31.161 34.6558 33.7799 32.4835 34.2637C29.6396 34.8045 26.7732 35.0356 23.9097 34.9563C23.8527 34.9548 23.798 34.9768 23.7583 35.0177C23.3519 35.4348 21.0919 37.7548 21.0919 37.7548L18.2558 40.6655C18.0484 40.8816 17.6842 40.7346 17.6842 40.4362V34.4654C17.6842 34.3667 17.6138 34.2829 17.5169 34.2639C17.5163 34.2638 17.5158 34.2637 17.5152 34.2636C15.3429 33.7797 12.6099 31.1609 12.0756 29.0544C11.1869 24.9785 11.1869 20.8467 12.0756 16.7708C12.6099 14.6643 15.3429 12.0454 17.5152 11.5616C22.482 10.617 27.5178 10.617 32.4835 11.5616C34.6569 12.0454 37.3899 14.6643 37.9231 16.7708C38.8128 20.8468 38.8128 24.9786 37.9231 29.0545Z" fill="white"/>
<path d="M29.7248 31.8105C29.3909 31.7091 29.0726 31.641 28.777 31.5183C25.7142 30.2476 22.8955 28.6083 20.6627 26.0953C19.393 24.6663 18.3992 23.0529 17.5591 21.3456C17.1607 20.5359 16.825 19.6945 16.4828 18.8586C16.1708 18.0963 16.6304 17.3087 17.1143 16.7344C17.5684 16.1954 18.1528 15.7828 18.7856 15.4788C19.2795 15.2415 19.7668 15.3783 20.1275 15.797C20.9074 16.7021 21.6237 17.6536 22.2037 18.7028C22.5604 19.3481 22.4625 20.1369 21.8161 20.5761C21.659 20.6829 21.5158 20.8082 21.3695 20.9288C21.2411 21.0344 21.1203 21.1412 21.0323 21.2842C20.8715 21.546 20.8638 21.8547 20.9674 22.1393C21.7645 24.3301 23.1082 26.0336 25.3132 26.9512C25.6661 27.098 26.0205 27.2689 26.427 27.2215C27.1077 27.142 27.3281 26.3952 27.8052 26.0051C28.2715 25.6238 28.8673 25.6188 29.3696 25.9366C29.872 26.2546 30.359 26.5959 30.843 26.9409C31.3182 27.2794 31.7913 27.6107 32.2296 27.9966C32.651 28.3678 32.7962 28.8547 32.5589 29.3584C32.1244 30.2809 31.4922 31.0483 30.5803 31.5382C30.3228 31.6763 30.0153 31.7211 29.7248 31.8105C30.0153 31.7211 29.3909 31.709 29.7248 31.8105Z" fill="white"/>
<path d="M25.0084 14.424C29.0146 14.5363 32.305 17.195 33.0101 21.1556C33.1303 21.8305 33.1731 22.5205 33.2265 23.2054C33.249 23.4935 33.0859 23.7673 32.7749 23.771C32.4538 23.7748 32.3093 23.5062 32.2885 23.2182C32.2472 22.6481 32.2186 22.0755 32.14 21.5101C31.7253 18.5258 29.3456 16.0568 26.3751 15.527C25.9281 15.4472 25.4706 15.4263 25.0178 15.3788C24.7316 15.3487 24.3567 15.3314 24.2933 14.9756C24.2401 14.6773 24.4919 14.4397 24.7759 14.4245C24.8532 14.4202 24.9308 14.4237 25.0084 14.424C24.9308 14.4237 29.0146 14.5363 25.0084 14.424Z" fill="white"/>
<path d="M31.0961 22.3169C31.0896 22.3669 31.0861 22.4845 31.0568 22.5953C30.9504 22.9975 30.3407 23.0479 30.2002 22.642C30.1586 22.5215 30.1524 22.3845 30.1522 22.2548C30.1507 21.4063 29.9663 20.5586 29.5384 19.8203C29.0986 19.0616 28.4266 18.4237 27.6384 18.0377C27.1618 17.8043 26.6464 17.6593 26.124 17.5729C25.8957 17.5351 25.665 17.5122 25.4356 17.4803C25.1576 17.4416 25.0091 17.2644 25.0223 16.9905C25.0346 16.7338 25.2222 16.5491 25.502 16.5649C26.4214 16.6171 27.3094 16.8158 28.1267 17.2486C29.7889 18.1289 30.7384 19.5183 31.0155 21.3736C31.028 21.4576 31.0482 21.5409 31.0546 21.6252C31.0702 21.8336 31.0801 22.0422 31.0961 22.3169C31.0801 22.0422 31.0896 22.3669 31.0961 22.3169Z" fill="white"/>
<path d="M28.6042 22.2195C28.269 22.2255 28.0896 22.04 28.055 21.7327C28.031 21.5184 28.012 21.3013 27.9609 21.0928C27.8602 20.6823 27.642 20.3018 27.2966 20.0502C27.1336 19.9314 26.9488 19.8448 26.7553 19.789C26.5094 19.718 26.2541 19.7375 26.0088 19.6774C25.7424 19.6121 25.595 19.3964 25.6369 19.1465C25.675 18.9191 25.8963 18.7416 26.1448 18.7596C27.698 18.8717 28.8081 19.6747 28.9665 21.5032C28.9777 21.6322 28.9909 21.7686 28.9623 21.892C28.9132 22.1033 28.7568 22.2092 28.6042 22.2195C28.7568 22.2092 28.269 22.2255 28.6042 22.2195Z" fill="white"/>
</svg>
