<svg width="25" height="25" viewBox="0 0 25 25" fill="none" xmlns="http://www.w3.org/2000/svg">
<path d="M24.4849 6.35735C24.1967 5.28638 23.3523 4.44219 22.2816 4.1538C20.3252 3.61841 12.4998 3.61841 12.4998 3.61841C12.4998 3.61841 4.67451 3.61841 2.71815 4.13339C1.66797 4.42159 0.80299 5.28657 0.514791 6.35735C0 8.31352 0 12.3704 0 12.3704C0 12.3704 0 16.4478 0.514791 18.3835C0.803181 19.4543 1.64737 20.2987 2.71834 20.5871C4.69511 21.1225 12.4999 21.1225 12.4999 21.1225C12.4999 21.1225 20.3252 21.1225 22.2816 20.6075C23.3525 20.3193 24.1967 19.4749 24.4851 18.4041C24.9999 16.4478 24.9999 12.391 24.9999 12.391C24.9999 12.391 25.0205 8.31352 24.4849 6.35735Z" fill="#FF0000"/>
<path d="M10.0078 16.2598L16.5151 12.5119L10.0078 8.76392V16.2598Z" fill="white"/>
</svg>
