<svg width="25" height="26" viewBox="0 0 25 26" fill="none" xmlns="http://www.w3.org/2000/svg">
<g clip-path="url(#clip0)">
<path d="M24.2365 20.5695L24.2365 20.5694L21.465 18.7217L21.465 18.7216L19.0016 17.0797C18.744 16.9082 18.3977 16.9644 18.2075 17.2086L16.6847 19.1663C16.6844 19.1666 16.6842 19.1668 16.684 19.1671C16.2056 19.7875 15.3457 19.9657 14.6601 19.5861L14.6592 19.5857C14.5694 19.5357 14.4764 19.4851 14.3798 19.4325C13.937 19.1917 13.417 18.9088 12.7598 18.445C11.9583 17.8794 10.9559 17.0482 9.59169 15.6823C8.22767 14.3165 7.39678 13.3143 6.83088 12.5135C6.36404 11.853 6.08015 11.3318 5.83799 10.8873C5.78682 10.7934 5.73751 10.7028 5.68874 10.6152L5.68825 10.6143C5.30873 9.9288 5.48679 9.069 6.10706 8.5906C6.10742 8.59032 6.10779 8.59004 6.10816 8.58975L8.0658 7.06695C8.30979 6.87688 8.3661 6.53087 8.19497 6.27321L24.2365 20.5695ZM24.2365 20.5695C24.4991 20.7445 24.578 21.0949 24.4156 21.3656L23.1023 23.5548L23.1023 23.5547L23.1003 23.5582C22.8172 24.0386 22.3605 24.3919 21.8244 24.5451C19.8687 25.0807 15.2315 25.309 7.59861 17.6762C-0.0342798 10.0433 0.193709 5.40563 0.729255 3.44992C0.882536 2.91385 1.23584 2.45708 1.71617 2.17409L1.71618 2.1741L1.71958 2.17206L3.90875 0.858733C3.90877 0.858719 3.90879 0.858706 3.90882 0.858692C4.17945 0.696438 4.52987 0.775284 4.70493 1.03788L4.70494 1.03789L6.60319 3.8853L6.6032 3.88532L8.19472 6.27283L24.2365 20.5695Z" stroke="black"/>
<path d="M22.4155 11.4811C22.4155 11.7191 22.2225 11.9121 21.9845 11.9121C21.7464 11.9121 21.5534 11.7191 21.5534 11.4811C21.5489 7.43604 18.2709 4.15805 14.2259 4.15355L13.7949 3.72255C13.7949 3.48447 13.9879 3.2915 14.226 3.2915C18.7469 3.29648 22.4105 6.96016 22.4155 11.4811ZM22.4155 11.4811L21.9845 11.4815L21.9155 11.4816C21.9155 11.4814 21.9155 11.4812 21.9155 11.4811H21.9845H22.0534H22.4155Z" stroke="black"/>
<path d="M19.8274 11.4808C19.8274 11.7189 19.6344 11.9119 19.3964 11.9119C19.1583 11.9119 18.9653 11.7189 18.9653 11.4808C18.9622 8.86359 16.8413 6.74262 14.224 6.73954C13.9859 6.73954 13.793 6.54657 13.793 6.30849C13.793 6.07041 13.986 5.87744 14.224 5.87744C17.3172 5.88101 19.8239 8.38767 19.8274 11.4808ZM19.8274 11.4808L19.3964 11.4813L19.3274 11.4814C19.3274 11.4812 19.3274 11.481 19.3274 11.4808H19.3964H19.4653H19.8274Z" stroke="black"/>
<path d="M16.7432 11.4811C16.7432 11.4809 16.7432 11.4808 16.7432 11.4806C16.7432 11.4808 16.7432 11.4809 16.7432 11.4811ZM16.7432 11.4811C16.7432 11.4813 16.7432 11.4814 16.7432 11.4816L16.8121 11.4816L17.2432 11.4811M16.7432 11.4811H16.8121H16.8811H17.2432M17.2432 11.4811C17.2413 9.81551 15.8915 8.46577 14.226 8.46387L14.2259 9.32592C15.4156 9.32733 16.3797 10.2914 16.3811 11.4811C16.3811 11.7191 16.574 11.9121 16.8121 11.9121C17.0502 11.9121 17.2432 11.7192 17.2432 11.4811Z" stroke="black"/>
</g>
<defs>
<clipPath id="clip0">
<rect y="0.274414" width="25" height="25" fill="white"/>
</clipPath>
</defs>
</svg>
