<svg width="24" height="46" viewBox="0 0 24 46" fill="none" xmlns="http://www.w3.org/2000/svg">
<path d="M22.5 46C22.9118 46 23.2647 45.8486 23.5588 45.5459C23.8529 45.2432 24 44.8799 24 44.4561C24 44.0322 23.8529 43.669 23.5588 43.3662L3.61765 22.8411L23.25 2.63376C23.5441 2.33103 23.6912 1.96775 23.6912 1.54393C23.6912 1.12011 23.5441 0.756828 23.25 0.454094C22.9559 0.151363 22.6029 -6.10674e-08 22.1912 -7.90662e-08C21.7794 -9.7065e-08 21.4265 0.151363 21.1324 0.454094L0.441175 21.7512C0.147058 22.054 -8.76514e-07 22.4172 -8.95039e-07 22.8411C-9.13565e-07 23.2649 0.147058 23.6282 0.441175 23.9309L21.3971 45.5459C21.4559 45.6064 21.5221 45.6594 21.5956 45.7048C21.6691 45.7502 21.7426 45.7881 21.8162 45.8184L22.0368 45.9092L22.2574 45.9773L22.5 46Z" fill="#FAA701"/>
</svg>
