<svg width="24" height="46" viewBox="0 0 24 46" fill="none" xmlns="http://www.w3.org/2000/svg">
<path d="M1.5 46C1.08824 46 0.735294 45.8486 0.441177 45.5459C0.147059 45.2432 -4.89614e-08 44.8799 -6.74873e-08 44.4561C-8.60132e-08 44.0322 0.147059 43.669 0.441176 43.3662L20.3824 22.8411L0.749998 2.63376C0.45588 2.33103 0.308822 1.96775 0.308822 1.54393C0.308822 1.12011 0.45588 0.756828 0.749998 0.454094C1.04412 0.151363 1.39706 -6.10674e-08 1.80882 -7.90662e-08C2.22059 -9.7065e-08 2.57353 0.151363 2.86765 0.454094L23.5588 21.7512C23.8529 22.054 24 22.4172 24 22.8411C24 23.2649 23.8529 23.6282 23.5588 23.9309L2.60294 45.5459C2.54412 45.6064 2.47794 45.6594 2.40441 45.7048C2.33088 45.7502 2.25735 45.7881 2.18382 45.8184L1.96324 45.9092L1.74265 45.9773L1.5 46Z" fill="#FAA701"/>
</svg>
