<svg width="46" height="24" viewBox="0 0 46 24" fill="none" xmlns="http://www.w3.org/2000/svg">
<path d="M0 1.5C0 1.08824 0.151366 0.735294 0.454097 0.441177C0.756828 0.147059 1.12011 0 1.54393 0C1.96775 0 2.33103 0.147059 2.63376 0.441177L23.1589 20.3824L43.3662 0.75C43.669 0.455882 44.0322 0.308824 44.4561 0.308824C44.8799 0.308824 45.2432 0.455882 45.5459 0.75C45.8486 1.04412 46 1.39706 46 1.80882C46 2.22059 45.8486 2.57353 45.5459 2.86765L24.2488 23.5588C23.946 23.8529 23.5828 24 23.1589 24C22.7351 24 22.3718 23.8529 22.0691 23.5588L0.454097 2.60294C0.393551 2.54412 0.340573 2.47794 0.295163 2.40441C0.249753 2.33088 0.211912 2.25735 0.181639 2.18382L0.0908194 1.96324L0.0227048 1.74265L0 1.5Z" fill="#FAA701"/>
</svg>
