<svg width="30" height="30" viewBox="0 0 30 30" fill="none" xmlns="http://www.w3.org/2000/svg">
<path d="M5.57812 9.92321C5.57812 4.72771 9.80582 0.5 15.0014 0.5C20.1969 0.5 24.4246 4.7277 24.4245 9.92327C24.4245 10.9323 24.0991 12.3126 23.3935 14.1141C22.6912 15.9073 21.6274 18.0806 20.1859 20.6638L20.6225 20.9074L20.1859 20.6638C18.1482 24.3154 16.1428 27.3618 16.0591 27.4888C16.059 27.4888 16.059 27.4889 16.059 27.4889L15.0014 29.092L13.9438 27.4889C13.9437 27.4889 13.9437 27.4888 13.9436 27.4887C13.8594 27.3609 11.8544 24.3149 9.81675 20.6637C8.3753 18.0806 7.31148 15.9072 6.60917 14.1141C5.90359 12.3126 5.57812 10.9322 5.57812 9.92321ZM9.3576 9.85621C9.3576 12.9732 11.8845 15.5 15.0014 15.5C18.1182 15.5 20.6452 12.9732 20.6452 9.85621C20.6452 6.73921 18.1183 4.21242 15.0014 4.21242C11.8845 4.21242 9.3576 6.73921 9.3576 9.85621Z" stroke="black"/>
</svg>
