<svg width="20" height="20" viewBox="0 0 20 20" fill="none" xmlns="http://www.w3.org/2000/svg">
<g clip-path="url(#clip0)">
<path d="M19.6111 15.9032L17.3939 14.4249L15.4228 13.1112C15.0425 12.8581 14.5313 12.9411 14.2504 13.3015L13.0308 14.8694C12.7688 15.2097 12.2975 15.3074 11.9218 15.0994C11.0943 14.6391 10.1156 14.2057 7.95637 12.0436C5.7971 9.88157 5.3609 8.90572 4.90055 8.07815C4.69254 7.70245 4.79032 7.23117 5.13055 6.96922L6.69846 5.74958C7.05888 5.4688 7.14189 4.9576 6.88881 4.57717L5.61538 2.66684L4.09677 0.388902C3.8383 0.00117267 3.32088 -0.115232 2.92128 0.124413L1.16989 1.1751C0.696574 1.45397 0.348649 1.90428 0.198182 2.43267C-0.280758 4.17886 -0.377319 8.03088 5.79605 14.2042C11.9694 20.3776 15.8211 20.2807 17.5673 19.8018C18.0957 19.6513 18.546 19.3034 18.8248 18.8301L19.8755 17.0787C20.1152 16.6791 19.9988 16.1617 19.6111 15.9032Z" fill="black"/>
<path d="M11.38 3.10334C14.6159 3.10693 17.2384 5.72932 17.242 8.96534C17.242 9.15577 17.3963 9.31018 17.5868 9.31018C17.7772 9.31018 17.9316 9.15581 17.9316 8.96534C17.9277 5.34862 14.9967 2.41768 11.38 2.4137C11.1896 2.4137 11.0352 2.56807 11.0352 2.75854C11.0351 2.94892 11.1895 3.10334 11.38 3.10334Z" fill="black"/>
<path d="M11.38 5.17222C13.4738 5.17468 15.1706 6.87146 15.173 8.96527C15.173 9.15569 15.3274 9.31011 15.5179 9.31011C15.7083 9.31011 15.8627 9.15573 15.8627 8.96527C15.8599 6.49072 13.8546 4.4854 11.38 4.48254C11.1896 4.48254 11.0352 4.63692 11.0352 4.82738C11.0352 5.01785 11.1895 5.17222 11.38 5.17222Z" fill="black"/>
<path d="M11.38 7.24115C12.3317 7.24229 13.1029 8.01353 13.1041 8.96528C13.1041 9.1557 13.2584 9.31011 13.4489 9.31011C13.6393 9.31011 13.7938 9.15574 13.7938 8.96528C13.7922 7.63283 12.7124 6.55304 11.38 6.55151C11.1896 6.55151 11.0352 6.70589 11.0352 6.89635C11.0351 7.08678 11.1895 7.24115 11.38 7.24115Z" fill="black"/>
</g>
<defs>
<clipPath id="clip0">
<rect width="20" height="20" fill="white"/>
</clipPath>
</defs>
</svg>
